<?xml version="1.0" encoding="UTF-8"?>
<svg width="28px" height="16px" viewBox="0 0 28 16" version="1.1" xmlns="http://www.w3.org/2000/svg" xmlns:xlink="http://www.w3.org/1999/xlink">
    <!-- Generator: Sketch 46.2 (44496) - http://www.bohemiancoding.com/sketch -->
    <title>hamburger</title>
    <desc>Created with Sketch.</desc>
    <defs></defs>
    <g id="Page-1" stroke="none" stroke-width="1" fill="none" fill-rule="evenodd">
        <g id="hamburger" fill-rule="nonzero" fill="#297FCA">
            <path d="M1.5,-2.22044605e-16 C1.13936408,-0.00510028955 0.803918635,0.184375296 0.622112279,0.49587285 C0.440305922,0.807370403 0.440305922,1.1926296 0.622112279,1.50412715 C0.803918635,1.8156247 1.13936408,2.00510029 1.5,2 L26.5,2 C26.8606359,2.00510029 27.1960814,1.8156247 27.3778877,1.50412715 C27.5596941,1.1926296 27.5596941,0.807370403 27.3778877,0.49587285 C27.1960814,0.184375296 26.8606359,-0.00510028955 26.5,-1.11022302e-15 L1.5,-2.22044605e-16 Z" id="Shape"></path>
            <path d="M1.5,7 C1.13936408,6.99489971 0.803918635,7.1843753 0.622112279,7.49587285 C0.440305922,7.8073704 0.440305922,8.1926296 0.622112279,8.50412715 C0.803918635,8.8156247 1.13936408,9.00510029 1.5,9 L26.5,9 C26.8606359,9.00510029 27.1960814,8.8156247 27.3778877,8.50412715 C27.5596941,8.1926296 27.5596941,7.8073704 27.3778877,7.49587285 C27.1960814,7.1843753 26.8606359,6.99489971 26.5,7 L1.5,7 Z" id="Shape"></path>
            <path d="M1.5,14 C1.13936408,13.9948997 0.803918635,14.1843753 0.622112279,14.4958728 C0.440305922,14.8073704 0.440305922,15.1926296 0.622112279,15.5041272 C0.803918635,15.8156247 1.13936408,16.0051003 1.5,16 L26.5,16 C26.8606359,16.0051003 27.1960814,15.8156247 27.3778877,15.5041272 C27.5596941,15.1926296 27.5596941,14.8073704 27.3778877,14.4958728 C27.1960814,14.1843753 26.8606359,13.9948997 26.5,14 L1.5,14 Z" id="Shape"></path>
        </g>
    </g>
</svg>